<?xml version="1.0" encoding="UTF-8" standalone="no"?><!DOCTYPE svg PUBLIC "-//W3C//DTD SVG 1.1//EN" "http://www.w3.org/Graphics/SVG/1.1/DTD/svg11.dtd"><svg width="100%" height="100%" viewBox="0 0 396 396" version="1.1" xmlns="http://www.w3.org/2000/svg" xmlns:xlink="http://www.w3.org/1999/xlink" xml:space="preserve" xmlns:serif="http://www.serif.com/" style="fill-rule:evenodd;clip-rule:evenodd;stroke-linejoin:round;stroke-miterlimit:2;"><path d="M371.667,154.583l-33.75,-3.75c-2.084,-6.25 -4.584,-12.916 -7.917,-18.75l21.25,-26.25c8.75,-10.833 7.917,-26.25 -2.083,-35.833l-23.334,-23.333c-10,-9.584 -25.416,-10.417 -35.833,-1.667l-26.25,21.25c-6.25,-2.917 -12.5,-5.833 -18.75,-7.917l-3.75,-33.75c-1.25,-14.166 -12.917,-24.583 -26.667,-24.583l-33.333,0c-13.75,0 -25.417,10.417 -26.667,24.167l-3.75,33.75c-6.25,2.083 -12.5,4.583 -18.75,7.916l-26.25,-21.25c-10.833,-8.75 -26.25,-7.916 -35.833,2.084l-23.333,23.333c-10,9.583 -10.417,25.417 -2.084,36.25l21.25,26.25c-2.916,5.833 -5.416,12.5 -7.916,18.75l-33.75,3.75c-13.75,0.833 -24.167,12.5 -24.167,26.25l0,33.333c0,13.75 10.417,25.417 24.167,26.667l33.75,3.75c2.083,6.667 4.583,12.917 7.5,18.75l-21.25,26.25c-8.75,10.833 -7.917,26.25 2.083,36.25l23.333,23.333c10,10 25.417,10.834 36.25,2.084l26.25,-21.25c6.25,2.916 12.5,5.416 18.75,7.5l3.75,33.75c1.667,13.75 12.917,24.166 26.667,24.166l33.333,0c13.75,0 25.417,-10.416 26.667,-24.166l3.75,-33.75c6.25,-2.084 12.5,-4.584 18.75,-7.5l26.25,21.25c10.833,8.75 26.25,7.916 35.833,-1.667l23.334,-23.333c9.583,-9.584 10.416,-25.417 2.083,-36.25l-21.25,-26.25c2.917,-5.834 5.417,-12.084 7.5,-18.75l33.75,-3.75c13.75,-1.25 24.167,-12.917 24.167,-26.667l-0,-33.333c0.416,-14.167 -10,-25.834 -23.75,-27.084Zm-38.334,63.75c-9.583,0.834 -17.5,7.5 -20.416,16.667c-2.084,6.25 -4.584,12.5 -7.5,17.917c-4.167,8.75 -3.334,18.75 2.5,26.25l22.5,27.916l-23.334,23.334l-27.916,-22.5c-7.5,-5.834 -17.5,-7.084 -26.25,-2.5c-5.834,2.916 -12.084,5.416 -17.917,7.5c-9.167,2.916 -15.833,10.833 -16.667,20.416l-3.75,35.417l-33.333,0l-3.75,-35.833c-0.833,-9.584 -7.5,-17.5 -16.667,-20.417c-6.25,-2.083 -12.083,-4.583 -17.916,-7.5c-3.334,-1.667 -7.5,-2.5 -11.25,-2.5c-5.417,0 -10.834,1.667 -15,5.417l-27.917,22.5l-23.333,-23.334l22.5,-27.916c5.833,-7.5 7.083,-17.5 2.5,-26.25c-2.917,-5.834 -5.417,-11.667 -7.5,-17.917c-2.917,-9.167 -10.834,-15.833 -20.417,-16.667l-35.417,-3.75l0,-33.333l35.834,-3.75c9.583,-0.833 17.5,-7.5 20.416,-16.667c2.084,-6.25 4.584,-12.083 7.5,-17.916c4.167,-8.75 3.334,-18.75 -2.5,-26.25l-22.5,-27.917l23.334,-23.333l27.916,22.5c7.5,5.833 17.5,7.083 26.25,2.5c5.834,-2.917 12.084,-5.417 17.917,-7.5c9.167,-2.917 15.833,-10.834 17.083,-20.417l2.917,-35.417l33.333,0l3.75,35.834c0.834,9.583 7.5,17.5 16.667,20.416c5.833,2.084 11.667,4.584 17.917,7.5c8.75,4.167 18.75,3.334 26.25,-2.5l27.916,-22.5l23.334,23.334l-22.5,27.916c-5.834,7.5 -7.084,17.5 -2.5,26.25c2.916,5.834 5.416,11.667 7.5,17.917c2.916,9.167 10.833,15.833 20.416,16.667l35.417,3.333l0,33.333l-35.417,3.75Z" style="fill-rule:nonzero;"/><path d="M197.917,120c-42.917,0 -77.917,35 -77.917,77.917c0,42.916 35,77.916 77.917,77.916c42.916,0 77.916,-35 77.916,-77.916c0,-42.917 -35,-77.917 -77.916,-77.917Zm-0,128.75c-27.917,0 -50.834,-22.917 -50.834,-50.833c0,-27.917 22.917,-50.834 50.834,-50.834c27.916,0 50.833,22.917 50.833,50.834c0,27.916 -22.917,50.833 -50.833,50.833Z" style="fill-rule:nonzero;"/></svg>