<?xml version="1.0" encoding="UTF-8" standalone="no"?><!DOCTYPE svg PUBLIC "-//W3C//DTD SVG 1.1//EN" "http://www.w3.org/Graphics/SVG/1.1/DTD/svg11.dtd"><svg width="100%" height="100%" viewBox="0 0 150 184" version="1.1" xmlns="http://www.w3.org/2000/svg" xmlns:xlink="http://www.w3.org/1999/xlink" xml:space="preserve" xmlns:serif="http://www.serif.com/" style="fill-rule:evenodd;clip-rule:evenodd;stroke-linejoin:round;stroke-miterlimit:2;"><path d="M150,175c0,4.602 -3.731,8.333 -8.333,8.333c-4.603,0 -8.334,-3.731 -8.334,-8.333c0,-32.217 -26.116,-58.333 -58.333,-58.333c-32.217,-0 -58.333,26.116 -58.333,58.333c-0,4.602 -3.731,8.333 -8.334,8.333c-4.602,0 -8.333,-3.731 -8.333,-8.333c-0,-41.421 33.579,-75 75,-75c41.421,0 75,33.579 75,75Zm-75,-83.333c-25.313,-0 -45.833,-20.521 -45.833,-45.834c-0,-25.313 20.52,-45.833 45.833,-45.833c25.313,0 45.833,20.52 45.833,45.833c0,25.313 -20.52,45.834 -45.833,45.834Zm0,-16.667c16.108,0 29.167,-13.058 29.167,-29.167c-0,-16.108 -13.059,-29.166 -29.167,-29.166c-16.108,-0 -29.167,13.058 -29.167,29.166c0,16.109 13.059,29.167 29.167,29.167Z" style="fill-rule:nonzero;"/></svg>